<svg xmlns="http://www.w3.org/2000/svg" xmlns:xlink="http://www.w3.org/1999/xlink" width="231" height="32" viewBox="0 0 231 32">
    <defs>
        <path id="opnzqyrfca" d="M0.662 0.638L15.595 0.638 15.595 28.897 0.662 28.897z"/>
        <path id="8ejgydvskc" d="M0.764 0.516L14.361 0.516 14.361 26.669 0.764 26.669z"/>
        <path id="ads6kuzn3e" d="M0.309 0.649L21.673 0.649 21.673 22.013 0.309 22.013z"/>
    </defs>
    <g fill="none" fill-rule="evenodd">
        <g>
            <g>
                <path fill="#000" d="M5.558 24.796h4.387c2.771 0 4.886-.702 6.35-2.106 1.463-1.404 2.474-3.699 3.037-6.885.566-3.212.366-5.52-.602-6.923-.969-1.405-2.837-2.107-5.607-2.107H8.735l-3.177 18.02zM0 29.106l4.697-26.64h9.194c4.125 0 7.056 1.13 8.792 3.393 1.734 2.262 2.218 5.578 1.447 9.946-.765 4.343-2.413 7.645-4.939 9.908-2.526 2.262-5.859 3.393-9.998 3.393H0zM31.336 17.638h8.036c.11-1.366-.093-2.521-.61-3.463-.516-.942-1.372-1.413-2.569-1.413-1.196 0-2.197.384-3.002 1.152-.804.767-1.423 2.009-1.855 3.724m-5.1 1.716c.563-3.197 1.726-5.753 3.486-7.663 1.761-1.912 4.189-2.868 7.283-2.868 2.925 0 4.975.93 6.149 2.789 1.174 1.86 1.52 4.148 1.042 6.865-.197 1.119-.37 1.944-.516 2.477H30.752c-.175 1.73.137 2.887.937 3.472s1.922.877 3.366.877c2.34 0 4.693-.513 7.059-1.541l-.68 3.861c-2.423 1.198-5.03 1.795-7.826 1.795-.885 0-1.704-.072-2.459-.215-.755-.142-1.51-.44-2.267-.896-.756-.456-1.374-1.034-1.854-1.737-.479-.702-.803-1.674-.97-2.916-.17-1.24-.11-2.674.177-4.3" transform="translate(-120.000000, -29.000000) translate(120.000000, 29.000000)"/>
                <g transform="translate(-120.000000, -29.000000) translate(120.000000, 29.000000) translate(45.718303, 0.209119)">
                    <mask id="17fpuxb7sb" fill="#fff">
                        <use xlink:href="#opnzqyrfca"/>
                    </mask>
                    <path fill="#000" d="M.662 13.08l.725-4.114h3.394C5.786 3.414 8.752.637 13.679.637c.638 0 1.277.066 1.916.2l-.674 3.818c-.472-.051-.824-.078-1.058-.078-1.248 0-2.198.3-2.85.897-.651.599-1.13 1.763-1.434 3.492h4.582l-.726 4.114H8.853L6.064 28.897H1.266l2.79-15.817H.661z" mask="url(#17fpuxb7sb)"/>
                </g>
                <path fill="#000" d="M64.553 17.638h8.035c.11-1.366-.092-2.521-.61-3.463-.515-.942-1.372-1.413-2.568-1.413s-2.197.384-3.002 1.152c-.804.767-1.423 2.009-1.855 3.724m-5.101 1.716c.564-3.197 1.726-5.753 3.486-7.663 1.762-1.912 4.19-2.868 7.284-2.868 2.925 0 4.975.93 6.148 2.789 1.175 1.86 1.522 4.148 1.043 6.865-.198 1.119-.37 1.944-.516 2.477h-12.93c-.174 1.73.139 2.887.939 3.472.8.585 1.922.877 3.366.877 2.34 0 4.693-.513 7.059-1.541l-.681 3.861c-2.422 1.198-5.03 1.795-7.826 1.795-.884 0-1.704-.072-2.458-.215-.755-.142-1.51-.44-2.267-.896-.756-.456-1.375-1.034-1.854-1.737-.479-.702-.803-1.674-.97-2.916-.17-1.24-.11-2.674.177-4.3M78.72 29.106l3.183-18.06c3.183-1.455 6.36-2.184 9.532-2.184 2.782 0 4.83.725 6.14 2.175 1.312 1.45 1.737 3.481 1.276 6.094L96.74 29.106h-4.798l2.184-12.384c.093-.533.124-.979.088-1.337-.033-.357-.162-.73-.386-1.12-.224-.391-.65-.683-1.279-.878-.63-.195-1.463-.293-2.503-.293-1.17 0-2.427.117-3.768.35l-2.76 15.662h-4.799zM102.566 15.09c.354-2.004 1.33-3.544 2.93-4.617 1.6-1.074 3.455-1.61 5.56-1.61 1.976 0 3.707.475 5.19 1.423l-.644 3.65c-1.24-.64-2.717-.959-4.433-.959-2.288 0-3.531.562-3.73 1.682-.098.562.149 1.002.743 1.321.595.32 1.338.6 2.231.842.894.241 1.769.568 2.626.979.857.41 1.529 1.104 2.013 2.083.482.977.592 2.224.325 3.736-.294 1.668-1.218 3.052-2.77 4.15-1.552 1.099-3.446 1.648-5.683 1.648-2.288 0-4.298-.541-6.033-1.623l.75-4.253c1.55 1.175 3.324 1.761 5.326 1.761 1.379 0 2.303-.16 2.776-.479.473-.32.765-.799.878-1.44.104-.586-.142-1.058-.735-1.416-.593-.36-1.332-.672-2.213-.94-.883-.268-1.756-.584-2.622-.948-.866-.366-1.552-.969-2.06-1.81-.51-.841-.65-1.901-.425-3.18M123.611 17.638h8.036c.11-1.366-.093-2.521-.61-3.463-.516-.942-1.372-1.413-2.569-1.413-1.196 0-2.197.384-3.002 1.152-.804.767-1.423 2.009-1.855 3.724m-5.1 1.716c.563-3.197 1.726-5.753 3.486-7.663 1.762-1.912 4.189-2.868 7.283-2.868 2.925 0 4.975.93 6.149 2.789 1.174 1.86 1.52 4.148 1.042 6.865-.197 1.119-.37 1.944-.516 2.477h-12.928c-.175 1.73.137 2.887.937 3.472s1.922.877 3.366.877c2.34 0 4.693-.513 7.059-1.541l-.68 3.861c-2.423 1.198-5.03 1.795-7.826 1.795-.885 0-1.704-.072-2.459-.215-.755-.142-1.51-.44-2.267-.896-.756-.456-1.374-1.034-1.853-1.737-.48-.702-.804-1.674-.972-2.916-.168-1.24-.109-2.674.178-4.3" transform="translate(-120.000000, -29.000000) translate(120.000000, 29.000000)"/>
                <path fill="#DB2833" d="M145.53 16h4.798c2.106 0 3.611-.388 4.515-1.166.904-.776 1.49-1.922 1.757-3.437.265-1.5.077-2.634-.562-3.397-.639-.765-2.004-1.147-4.097-1.147h-4.798L145.53 16zm-7.109 13.105l4.698-26.64h9.966c3.152 0 5.453.774 6.899 2.322 1.446 1.547 1.918 3.751 1.413 6.61-.504 2.86-1.752 5.06-3.744 6.601-1.993 1.542-4.566 2.313-7.72 2.313h-5.163l-1.55 8.794h-4.799zM184.318 29.106l3.515-19.932h4.799l-3.515 19.932h-4.799zm3.915-22.643l.774-4.388h4.914l-.773 4.388h-4.915zM193.07 29.106l3.183-18.06c3.183-1.455 6.36-2.184 9.532-2.184 2.782 0 4.829.725 6.14 2.175 1.312 1.45 1.737 3.481 1.276 6.094l-2.111 11.975h-4.798l2.183-12.384c.094-.533.125-.979.09-1.337-.035-.357-.163-.73-.388-1.12-.223-.391-.65-.683-1.278-.878-.63-.195-1.463-.293-2.504-.293-1.17 0-2.426.117-3.767.35l-2.761 15.662h-4.798z" transform="translate(-120.000000, -29.000000) translate(120.000000, 29.000000)"/>
                <g transform="translate(-120.000000, -29.000000) translate(120.000000, 29.000000) translate(215.045353, 2.749025)">
                    <mask id="hx9f21hxmd" fill="#fff">
                        <use xlink:href="#8ejgydvskc"/>
                    </mask>
                    <path fill="#DB2833" d="M.764 10.54l.726-4.114h3.354L5.886.516h4.8l-1.043 5.91h4.72l-.726 4.114h-4.72l-1.733 9.83c-.151.858-.075 1.436.23 1.735.305.3.913.449 1.823.449.858 0 1.644-.143 2.357-.43l-.699 3.96c-1.005.39-2.059.585-3.164.585h-.097c-1.977 0-3.427-.585-4.352-1.755-.925-1.17-1.207-2.782-.845-4.837L4.12 10.54H.764z" mask="url(#hx9f21hxmd)"/>
                </g>
                <g transform="translate(-120.000000, -29.000000) translate(120.000000, 29.000000) translate(161.707333, 7.828836)">
                    <mask id="b0gaeesy1f" fill="#fff">
                        <use xlink:href="#ads6kuzn3e"/>
                    </mask>
                    <path fill="#DB2833" d="M10.99 17.714c-3.519 0-6.382-2.864-6.382-6.383 0-3.52 2.863-6.384 6.383-6.384 3.519 0 6.383 2.864 6.383 6.384 0 3.52-2.864 6.383-6.383 6.383m0-17.065C5.1.649.309 5.439.309 11.329c0 5.891 4.791 10.684 10.682 10.684 5.89 0 10.682-4.793 10.682-10.683S16.88.649 10.99.649" mask="url(#b0gaeesy1f)"/>
                </g>
                <path fill="#151C1E" d="M172.698 21.895c-1.508 0-2.735-1.228-2.735-2.735 0-1.51 1.227-2.736 2.735-2.736 1.508 0 2.736 1.227 2.736 2.736 0 1.507-1.228 2.735-2.736 2.735" transform="translate(-120.000000, -29.000000) translate(120.000000, 29.000000)"/>
            </g>
        </g>
    </g>
</svg>
